# xmcd CD database file
#
# Track frame offsets:
#	150
#	20670
#	52341
#	332550
#
# Disc length: 4440 seconds
#
# Revision: 0
# Processed by: cddbd v1.5.1PL0 Copyright (c) Steve Scherf et al.
# Submitted via: CDex 1.51
#
DISCID=35115604
DTITLE=椎名へきる - メモリーズ
DYEAR=2004
DGENRE=Rock and Roll
TTITLE0=メモリーズ
TTITLE1=メモリーズ(backtracks)
TTITLE2=メモリーズ(CCCD)
TTITLE3=メモリーズ(backtracks)(CCCD)
EXTD=YEAR: 2004
EXTT0=
EXTT1=
EXTT2=
EXTT3=
PLAYORDER=
